<svg xmlns="http://www.w3.org/2000/svg" width="109" height="50" viewBox="0 0 109 50" fill="none"><path d="M20.5665 5.42447C20.5665 5.42447 14.1574 5.42447 11.5387 5.42447C8.91999 5.42447 5.41906 7.39448 5.39311 11.8339V39.4936C5.39311 40.1045 4.89612 40.602 4.28136 40.602H1.11176C0.498993 40.602 0 40.1065 0 39.4936V11.9553C0 4.76582 5.42904 0 11.5387 0H20.5665C21.2032 0 21.7202 0.515385 21.7202 1.14817V4.27431C21.7202 4.90909 21.2032 5.42248 20.5665 5.42248" fill="#2C2833"></path><path d="M19.3211 21.6521H10.6147C9.99993 21.6521 9.50293 21.1547 9.50293 20.5438V17.346C9.50293 16.7351 9.99993 16.2396 10.6147 16.2396H19.3211C19.9339 16.2396 20.4329 16.7351 20.4329 17.346V20.5438C20.4329 21.1566 19.9339 21.6521 19.3211 21.6521Z" fill="#2C2833"></path><path d="M54.8231 37.2967L73.9625 1.63371C74.3617 0.895456 73.8247 0 72.9824 0H70.1162C69.7071 0 69.3318 0.224859 69.1382 0.583041L49.9988 36.2461C49.5996 36.9843 50.1366 37.8798 50.9769 37.8798H53.8451C54.2543 37.8798 54.6275 37.6569 54.8231 37.2967Z" fill="#2C2833"></path><path d="M43.2965 3.66341C43.2347 3.53606 43.2047 3.4087 43.2047 3.28135C43.2047 2.89929 43.4742 2.70826 43.9372 2.70826H48.6757C49.2006 2.70826 49.518 2.78387 49.6717 2.85153C49.8453 2.92715 50.003 3.05251 50.1786 3.4087C50.1786 3.4087 55.4081 13.0697 55.5298 13.3184C55.6037 13.4716 55.7693 13.798 55.2983 14.6835L52.7235 19.4831C52.5439 19.8174 52.0588 19.9607 51.8772 19.6264L43.2965 3.6654V3.66341ZM56.7454 15.8476C57.3621 14.6974 57.1685 13.8895 57.0647 13.6129L57.0448 13.5572C56.9849 13.3622 50.2685 0.961123 50.2685 0.961123C50.0768 0.628809 49.8732 0.394001 49.6437 0.240778C49.4741 0.129344 49.1527 0 48.1527 0H42.0371C41.2127 0 40.7197 0.40594 40.7197 1.0845C40.7197 1.3014 40.7736 1.5183 40.8774 1.72724L51.5598 21.6462C52.0169 22.4899 53.2365 22.3486 53.6915 21.5029L56.7434 15.8456L56.7454 15.8476Z" fill="#2C2833"></path><path d="M48.8656 41.7661V44.8922C48.8656 45.527 48.3506 46.0404 47.7139 46.0404H38.6861C32.5785 46.0404 27.1494 41.2746 27.1494 34.085V6.55076C27.1494 5.93787 27.6464 5.44238 28.2612 5.44238H31.4308C32.0435 5.44238 32.5425 5.93787 32.5425 6.55076V34.2104C32.5665 38.6479 35.9716 40.6179 38.6881 40.6179C41.4046 40.6179 47.7159 40.6179 47.7159 40.6179C48.3526 40.6179 48.8676 41.1313 48.8676 41.7661" fill="#2C2833"></path><path d="M108.551 32.4115C106.872 37.0559 105.195 41.7004 103.517 46.3448C102.776 48.4959 101.181 49.9505 98.7803 49.8968C98.2813 49.8968 97.7943 49.851 97.3033 49.7615C96.938 49.6938 95.96 49.7137 96.1756 49.0988C96.3412 48.6252 96.5069 48.1516 96.6726 47.678C96.7464 47.4651 96.8642 47.4014 97.0837 47.4591C98.6027 47.8591 100.513 47.8293 101.05 45.9747H100.567C100.395 45.9747 100.307 45.915 100.245 45.7558C98.5129 41.3104 96.7823 36.8649 95.0518 32.4195C94.9361 32.123 95.0538 31.9518 95.3732 31.9518H97.5468C97.7205 31.9518 97.8103 32.0135 97.8702 32.1767C98.9619 35.1357 100.054 38.0927 101.146 41.0517C101.259 41.3641 101.375 41.6745 101.489 41.9869C101.655 42.4744 101.822 42.964 101.988 43.4515C102.249 42.6515 102.509 41.8516 102.77 41.0517C103.786 38.0967 104.804 35.1397 105.82 32.1847C105.878 32.0155 105.968 31.9518 106.145 31.9518H108.227C108.541 31.9518 108.658 32.117 108.551 32.4115Z" fill="#2C2833"></path><path d="M91.0439 33.0423C90.2415 32.316 89.0379 31.9518 87.4331 31.9518C85.3473 31.9518 83.3474 32.5747 81.4332 33.8204C81.2317 33.9517 81.2017 34.089 81.3295 34.292C81.6029 34.7238 81.8784 35.1556 82.1518 35.5874C82.2815 35.7904 82.4193 35.8222 82.6248 35.6948C84.1677 34.7377 85.6567 34.2581 87.0878 34.2581C87.984 34.2581 88.6187 34.4711 88.994 34.8969C89.3692 35.3227 89.5569 36.0033 89.5569 36.9385V37.6251C87.9102 37.6668 86.4112 37.8638 85.0559 38.218C83.7007 38.5703 82.6189 39.1274 81.8045 39.8856C80.9921 40.6437 80.585 41.5949 80.585 42.7371C80.585 43.4435 80.7566 44.0723 81.0999 44.6216C81.4432 45.1728 81.9283 45.5986 82.553 45.8991C83.1777 46.1995 83.8863 46.3508 84.6787 46.3508C86.3613 46.3508 87.8663 45.9329 89.1956 45.0971C89.475 44.922 89.6786 45.0156 89.7205 45.3419C89.7345 45.4533 89.7505 45.5648 89.7644 45.6762C89.7924 45.8911 89.8882 45.9747 90.1057 45.9747H91.8981C92.1416 45.9747 92.2434 45.8732 92.2434 45.6304V36.4709C92.2434 34.9128 91.8422 33.7706 91.0399 33.0423H91.0439ZM89.5588 42.6336C89.5588 42.7749 89.5109 42.8585 89.3892 42.9301C88.0878 43.6923 86.7585 44.0743 85.4032 44.0743C84.7565 44.0743 84.2715 43.939 83.9502 43.6684C83.6268 43.3997 83.4652 42.9938 83.4652 42.4526C83.4652 41.579 84.028 40.9044 85.1537 40.4268C86.2016 39.9811 87.5489 39.7085 89.1956 39.605C89.4511 39.5891 89.5608 39.6926 89.5608 39.9473V42.6316L89.5588 42.6336Z" fill="#2C2833"></path><path d="M75.0742 32.712C72.9185 31.3628 70.3757 31.9459 68.3458 32.9448C67.6212 33.301 68.0883 31.9817 67.4097 32.0613C67.1682 32.0892 66.9266 32.117 66.6851 32.1449C66.4436 32.1727 66.2021 32.2006 65.9606 32.2284C65.6153 32.2682 65.1123 32.0712 65.1123 32.6384V49.5545C65.1123 50.2948 65.8029 49.8988 66.2261 49.8988H67.1861C67.9326 49.8988 67.8009 49.3137 67.8009 48.7924V47.0353C67.8009 46.5697 67.6851 45.9349 68.3697 46.0881C70.8886 46.6513 72.8846 46.6632 75.0942 45.0096C78.5911 42.3909 78.9504 35.1377 75.0762 32.714L75.0742 32.712ZM74.3796 41.8616C73.9944 42.6715 73.4734 43.2704 72.8168 43.6525C72.1601 44.0365 71.4036 44.2295 70.5493 44.2295C69.7669 44.2295 68.9326 44.1002 68.0464 43.8375C67.8667 43.7838 67.7989 43.6943 67.7989 43.5092V35.4859C67.7989 35.3407 67.8488 35.2571 67.9745 35.1854C69.0843 34.5666 70.214 34.2581 71.3617 34.2581C72.5094 34.2581 73.3936 34.6322 74.0183 35.3805C74.6431 36.1287 74.9564 37.2808 74.9564 38.8389C74.9564 40.0428 74.7628 41.0517 74.3776 41.8616H74.3796Z" fill="#2C2833"></path></svg>